inDegrees=yes
name=ik_Shooting_orientations
DataType=double
version=3
OpenSimVersion=4.3-2021-08-27-4bc7ad9
endheader
time	pelvis_tilt	pelvis_list	pelvis_rotation	pelvis_tx	pelvis_ty	pelvis_tz	hip_flexion_r	hip_adduction_r	hip_rotation_r	knee_angle_r	knee_angle_r_beta	ankle_angle_r	subtalar_angle_r	mtp_angle_r	hip_flexion_l	hip_adduction_l	hip_rotation_l	knee_angle_l	knee_angle_l_beta	ankle_angle_l	subtalar_angle_l	mtp_angle_l	lumbar_extension	lumbar_bending	lumbar_rotation	arm_flex_r	arm_add_r	arm_rot_r	elbow_flex_r	pro_sup_r	wrist_flex_r	wrist_dev_r	arm_flex_l	arm_add_l	arm_rot_l	elbow_flex_l	pro_sup_l	wrist_flex_l	wrist_dev_l
11.2	0.5880875465481786	-1.778509802780905	151.9077432868399	0	0.9399999999999999	0	44.9992172602911	-9.999999988258898	0	60.00007661686274	1.047198888413115	-4.999999851050402	0	0	44.9992172602911	-9.999999988258898	0	60.00007661686274	1.047198888413115	-4.999999851050402	0	0	-6.102549435085834	2.442795242902951	54.96753164438122	-89.98529669435366	-119.9980106807612	-69.13786070269956	24.65237708126817	45.00000026454654	0	0	0	-14.9367626078949	0	75.00090391611741	45.00000026454654	0	0
11.21	0.5739361816640848	-1.767584759723829	151.9072086352379	0	0.9399999999999999	0	44.99925610668469	-9.999999988297256	0	60.00007942548131	1.047198937432757	-4.99999985104994	0	0	44.99925610668469	-9.999999988297256	0	60.00007942548131	1.047198937432757	-4.99999985104994	0	0	-6.998910252934917	4.879834621892144	45.5618780393518	-89.98691866459487	-119.9976271967005	-67.41831920706994	36.84128801011954	45.00000026358641	0	0	0	-14.93858846157206	0	75.00086778853208	45.00000026358641	0	0
11.22	0.5647219453055854	-1.767404699627669	151.9085338519586	0	0.9399999999999999	0	44.99930218880523	-9.999999988336549	0	60.0000827686799	1.04719899578258	-4.999999851049487	0	0	44.99930218880523	-9.999999988336549	0	60.0000827686799	1.04719899578258	-4.999999851049487	0	0	-6.515072533489486	6.849840336374703	34.3222736933702	-89.98743175042834	-119.9969313395224	-68.27239738945927	52.39808974420863	45.00000026256642	0	0	0	-14.94083645838354	0	75.00082493162414	45.00000026256642	0	0
11.23	0.5622630497215811	-1.768810684140137	151.9177365654074	0	0.9399999999999999	0	44.99933535356445	-9.999999988363324	0	60.00008515747061	1.047199037474843	-4.999999851049187	0	0	44.99933535356445	-9.999999988363324	0	60.00008515747061	1.047199037474843	-4.999999851049187	0	0	-4.622569770768481	6.980772767624826	24.69843828010614	-89.98647544579917	-119.9959369319284	-67.57543559717848	64.0306434017599	45.00000026185941	0	0	0	-14.94246523057804	0	75.00079408800991	45.00000026185941	0	0
11.24	0.5691377727626719	-1.777949499262195	151.9140102364159	0	0.9399999999999999	0	44.99935396664768	-9.999999988379088	0	60.00008649051041	1.047199060740776	-4.99999985104901	0	0	44.99935396664768	-9.999999988379088	0	60.00008649051041	1.047199060740776	-4.99999985104901	0	0	-2.293769263232295	5.644087539038738	17.46153336926472	-89.98415986972017	-119.9946629555677	-66.13754222965093	71.67760094477715	45.00000026144748	0	0	0	-14.94336698895418	0	75.00077677762688	45.00000026144748	0	0
11.25	0.5611420576449074	-1.775093717752446	151.9366291950249	0	0.9399999999999999	0	44.99936881223989	-9.999999988391325	0	60.00008757179813	1.047199079612807	-4.999999851048876	0	0	44.99936881223989	-9.999999988391325	0	60.00008757179813	1.047199079612807	-4.999999851048876	0	0	-0.468021676987794	4.631859392453468	9.716891299248863	-89.98186031374232	-119.9918932947973	-65.79192149186916	81.95112764385034	45.00000026112587	0	0	0	-14.94409628668884	0	75.00076297105282	45.00000026112587	0	0
11.26	0.535245252243351	-1.773238403801498	151.9381051026902	0	0.9399999999999999	0	44.99939223013305	-9.999999988405731	0	60.0000892263562	1.047199108490293	-4.999999851048727	0	0	44.99939223013305	-9.999999988405731	0	60.0000892263562	1.047199108490293	-4.999999851048727	0	0	0.2694630482271366	3.963864338788571	6.853731043822235	-89.98040785283999	-119.9899674765896	-62.91260406372454	85.53731004367316	45.00000026071983	0	0	0	-14.94532569215253	0	75.00074119212412	45.00000026071983	0	0
11.27	0.523737285769176	-1.7707949982725	151.94317216833	0	0.9399999999999999	0	44.99939242903007	-9.999999988405925	0	60.00008923965485	1.047199108722398	-4.999999851048726	0	0	44.99939242903007	-9.999999988405925	0	60.00008923965485	1.047199108722398	-4.999999851048726	0	0	0.8244151475022475	3.328089229323653	5.159893725476389	-89.97902433939555	-119.9883432926842	-63.72260438210579	88.06937109527091	45.00000026071501	0	0	0	-14.9453348999058	0	75.00074100714764	45.00000026071501	0	0
11.28	0.527271941458217	-1.766376045707867	151.9519802781575	0	0.9399999999999999	0	44.99939265076657	-9.999999988406145	0	60.00008925431516	1.047199108978269	-4.999999851048724	0	0	44.99939265076657	-9.999999988406145	0	60.00008925431516	1.047199108978269	-4.999999851048724	0	0	0.9664860613903572	3.071060557132913	5.28870614153802	-89.97843532674494	-119.9885091715689	-64.24449479095186	87.85739272640082	45.00000026070957	0	0	0	-14.9453450842249	0	75.00074080093022	45.00000026070957	0	0
11.29	0.5422709906281401	-1.76337617875104	151.9567731702516	0	0.9399999999999999	0	44.99939280976348	-9.9999999884063	0	60.00008926484316	1.047199109162017	-4.999999851048724	0	0	44.99939280976348	-9.9999999884063	0	60.00008926484316	1.047199109162017	-4.999999851048724	0	0	1.398205739370919	2.420173018739339	5.019664398218822	-89.97679688033726	-119.9882340424118	-64.67180914338202	87.80452056766252	45.00000026070567	0	0	0	-14.9453523955158	0	75.00074065306131	45.00000026070567	0	0
11.3	0.5294701698806586	-1.758571002456264	151.942757312653	0	0.9399999999999999	0	44.99939710358252	-9.999999988410233	0	60.00008953347659	1.047199113850555	-4.999999851048679	0	0	44.99939710358252	-9.999999988410233	0	60.00008953347659	1.047199113850555	-4.999999851048679	0	0	2.209594526460349	0.9864345565341606	4.854482235727547	-89.97231171792944	-119.9880698991417	-65.49121884409571	87.59567503293523	45.00000026060363	0	0	0	-14.94554614596107	0	75.00073665976159	45.00000026060363	0	0
11.31	0.5264990621810254	-1.75453381711497	151.9429790088069	0	0.9399999999999999	0	44.99939817783976	-9.999999988411027	0	60.00008961897272	1.047199115342744	-4.999999851048671	0	0	44.99939817783976	-9.999999988411027	0	60.00008961897272	1.047199115342744	-4.999999851048671	0	0	3.779769359663326	-1.874663265626848	6.070887300599741	-89.95558596481391	-119.9893453852997	-67.34059410000067	85.89674176726085	45.00000026058249	0	0	0	-14.94560257068926	0	75.00073566068933	45.00000026058249	0	0
11.32	0.5374703063969162	-1.753243118607685	151.934188915544	0	0.9399999999999999	0	44.99939949648	-9.999999988411956	0	60.0000897260789	1.047199117212099	-4.999999851048662	0	0	44.99939949648	-9.999999988411956	0	60.0000897260789	1.047199117212099	-4.999999851048662	0	0	5.924011917539003	-5.53529048488724	7.665302777083694	-89.79279363647365	-119.9905756492562	-69.17171060837505	84.73987245223731	45.00000026055746	0	0	0	-14.94567301285084	0	75.00073443433774	45.00000026055746	0	0
11.33	0.539588389859693	-1.757946661743673	151.9368665572947	0	0.9399999999999999	0	44.99940615234348	-9.999999988416485	0	60.00009027497989	1.047199126792229	-4.999999851048611	0	0	44.99940615234348	-9.999999988416485	0	60.00009027497989	1.047199126792229	-4.999999851048611	0	0	6.611510837927509	-8.541882792877132	10.60607507235415	-82.34872814249209	-119.9923754072795	-67.1128236761058	80.32690869695939	45.00000026043415	0	0	0	-14.94603260554253	0	75.00072824430269	45.00000026043415	0	0
11.34	0.538635122352665	-1.758166270133055	151.9288645061395	0	0.9399999999999999	0	44.99941533736683	-9.999999988422527	0	60.00009104110775	1.047199140163683	-4.999999851048547	0	0	44.99941533736683	-9.999999988422527	0	60.00009104110775	1.047199140163683	-4.999999851048547	0	0	6.977279447701227	-12.06552151778485	14.13663690727944	-73.50544456012942	-119.9939690740581	-65.06395744525599	74.99799615859318	45.00000026026831	0	0	0	-14.94653453716097	0	75.0007197021169	45.00000026026831	0	0
11.35	0.539872767489325	-1.754536423230098	151.940233082904	0	0.9399999999999999	0	44.99942180383979	-9.99999998842679	0	60.00009157377625	1.047199149460502	-4.999999851048501	0	0	44.99942180383979	-9.99999998842679	0	60.00009157377625	1.047199149460502	-4.999999851048501	0	0	7.602477422321866	-16.30342472478393	17.25702956937446	-65.63585206056631	-119.9950413899046	-63.37377226655876	69.39836190661556	45.00000026015136	0	0	0	-14.94688678252963	0	75.0007136882169	45.00000026015136	0	0
11.36	0.5364655966898069	-1.739077471497036	151.9523906208206	0	0.9399999999999999	0	44.99943758847701	-9.99999998843721	0	60.00009272623554	1.047199169574711	-4.999999851048391	0	0	44.99943758847701	-9.99999998843721	0	60.00009272623554	1.047199169574711	-4.999999851048391	0	0	8.517351470258225	-20.74454938851661	20.52462780275288	-59.72927052691031	-119.9958552463533	-65.71613501663323	62.9643679473575	45.0000002598625	0	0	0	-14.94770936474925	0	75.00069900831201	45.0000002598625	0	0
11.37	0.523376631328791	-1.748819518947247	151.9432060035284	0	0.9399999999999999	0	44.99945051139477	-9.999999988444889	0	60.00009367060989	1.047199186057153	-4.999999851048313	0	0	44.99945051139477	-9.999999988444889	0	60.00009367060989	1.047199186057153	-4.999999851048313	0	0	9.592843268796575	-25.26363645411972	23.02857690979173	-54.42800449422466	-119.996383604909	-67.27754538673824	57.64167504315965	45.00000025964371	0	0	0	-14.94839782778197	0	75.00068698983851	45.00000025964371	0	0
